<svg width="75" height="75" viewBox="0 0 75 75" fill="none" xmlns="http://www.w3.org/2000/svg">
<path d="M22.12 50C20.53 50 19.24 51.29 19.24 52.88C19.24 54.47 20.53 55.76 22.12 55.76V50ZM52.88 55.77C54.47 55.77 55.76 54.48 55.76 52.89C55.76 51.3 54.47 50.01 52.88 50.01V55.77ZM45.19 69.23H29.81V75H45.19V69.23ZM29.81 69.23C22.43 69.23 19.42 69.19 17.07 68.43L15.29 73.92C18.72 75.04 22.87 75 29.81 75V69.23ZM0 37.5C0 41.07 0 45.72 0.12 49.84C0.18 51.9 0.27 53.86 0.41 55.52C0.54 57.08 0.73 58.64 1.09 59.72L6.58 57.94C6.46 57.57 6.3 56.63 6.17 55.04C6.04 53.54 5.96 51.69 5.9 49.68C5.78 45.65 5.78 41.09 5.78 37.5H0ZM17.06 68.43C12.08 66.81 8.18 62.91 6.57 57.94L1.08 59.72C3.27 66.45 8.55 71.73 15.28 73.92L17.06 68.43ZM69.23 45.19C69.23 52.57 69.19 55.58 68.43 57.93L73.92 59.71C75.04 56.28 75 52.13 75 45.19H69.23ZM45.19 75C52.12 75 56.28 75.04 59.72 73.92L57.94 68.43C55.59 69.19 52.58 69.23 45.2 69.23V75H45.19ZM68.43 57.94C66.81 62.92 62.91 66.82 57.94 68.43L59.72 73.92C66.45 71.73 71.73 66.45 73.92 59.72L68.43 57.94ZM39.79 21.17C43.52 21.19 47.68 21.24 51.18 21.38C52.93 21.45 54.48 21.54 55.71 21.65C57.04 21.77 57.73 21.9 57.93 21.96L59.71 16.47C58.81 16.18 57.5 16.01 56.23 15.9C54.86 15.78 53.2 15.68 51.4 15.61C47.81 15.47 43.57 15.42 39.82 15.4L39.79 21.17ZM75 45.19C75 38.26 75.04 34.1 73.92 30.66L68.43 32.44C69.19 34.79 69.23 37.8 69.23 45.18H75V45.19ZM57.94 21.95C62.92 23.57 66.82 27.47 68.43 32.44L73.92 30.66C71.73 23.93 66.45 18.65 59.72 16.46L57.94 21.95ZM5.77 37.5V13.25H0V37.5H5.77ZM11.68 5.77C15.46 5.77 18.1 5.77 20.16 5.96C22.17 6.14 23.37 6.49 24.31 7.02L27.16 2C25.22 0.9 23.12 0.43 20.69 0.21C18.3 0 15.35 0 11.68 0V5.77ZM24.31 7.03C26.54 8.3 28.44 10.48 29.6 13.31L34.94 11.13C33.35 7.23 30.64 3.99 27.16 2.01L24.31 7.03ZM11.68 0C10.24 0 8.97 0 7.92 0.09C6.82 0.19 5.71 0.42 4.63 1.03L7.48 6.05C7.55 6 7.76 5.9 8.44 5.84C9.17 5.77 10.13 5.77 11.68 5.77V0ZM5.77 13.25C5.77 11.45 5.77 10.25 5.83 9.32C5.89 8.4 6 7.97 6.11 7.71L0.77 5.53C0.32 6.62 0.15 7.75 0.08 8.93C0 10.1 0 11.53 0 13.25H5.77ZM4.63 1.03C2.86 2.03 1.54 3.65 0.77 5.53L6.11 7.71C6.44 6.9 6.96 6.34 7.48 6.05L4.63 1.03ZM34.98 11.21L34.94 11.12L29.6 13.3L29.64 13.39L34.98 11.21ZM39.82 15.4C38.01 15.39 36.05 13.85 34.97 11.22L29.63 13.4C31.16 17.15 34.7 21.14 39.79 21.17L39.82 15.4ZM22.12 55.77H52.89V50H22.12V55.77Z" fill="#123461"/>
</svg>
