<svg width="9" height="8" viewBox="0 0 9 8" fill="none" xmlns="http://www.w3.org/2000/svg">
<path d="M8.38451 0.922619C8.21702 1.5033 7.8302 1.95638 7.52248 2.45313C6.46106 4.17061 5.38369 5.87786 4.31163 7.5892C4.00125 8.08458 3.39643 8.13644 3.02092 7.69155C2.39616 6.95051 1.77473 6.20539 1.15596 5.45889C0.783763 5.00991 0.935299 4.37532 1.45903 4.16242C1.77008 4.03619 2.11369 4.13718 2.35894 4.42922C2.73778 4.88162 3.11529 5.33471 3.49281 5.78779C3.51607 5.81576 3.54132 5.84306 3.57323 5.88059C3.60048 5.84988 3.62507 5.82532 3.647 5.79802C4.91645 4.22657 6.1859 2.65443 7.45668 1.08365C7.56701 0.947183 7.68132 0.811395 7.81093 0.696078C7.8847 0.630572 7.99038 0.593725 8.08741 0.568478C8.21436 0.535725 8.3207 0.614196 8.35858 0.742478C8.36523 0.765678 8.3752 0.787513 8.38384 0.810031C8.3845 0.84756 8.38451 0.885089 8.38451 0.922619Z" fill="#033E8C"/>
</svg>