<svg width="87" height="75" viewBox="0 0 87 75" fill="none" xmlns="http://www.w3.org/2000/svg">
<path d="M17.99 21.84L20.03 19.8L17.99 21.84ZM10.57 14.42L8.53 16.46L10.57 14.42ZM41.34 69.23C39.75 69.23 38.46 70.52 38.46 72.11C38.46 73.7 39.75 74.99 41.34 74.99V69.23ZM79.97 64.19L77.64 62.49L79.97 64.19ZM75.72 68.44L74.02 66.11L75.72 68.44ZM75.72 6.56L77.42 4.23L75.72 6.56ZM79.97 10.81L77.64 12.51L79.97 10.81ZM14.65 6.56L12.95 4.23L14.65 6.56ZM3.84 37.5C3.84 39.09 5.13 40.38 6.72 40.38C8.31 40.38 9.60001 39.09 9.60001 37.5H3.84ZM10.4 10.81L8.07001 9.11L10.4 10.81ZM2.88 61.54C1.29 61.54 0 62.83 0 64.42C0 66.01 1.29 67.3 2.88 67.3V61.54ZM25.95 67.31C27.54 67.31 28.83 66.02 28.83 64.43C28.83 62.84 27.54 61.55 25.95 61.55V67.31ZM2.88 50C1.29 50 0 51.29 0 52.88C0 54.47 1.29 55.76 2.88 55.76V50ZM14.42 55.77C16.01 55.77 17.3 54.48 17.3 52.89C17.3 51.3 16.01 50.01 14.42 50.01V55.77ZM9.10999 12.97L6.51001 11.72L9.10999 12.97ZM20.03 19.8L13.08 12.85L9 16.93L15.95 23.88L20.03 19.8ZM77.29 12.85L70.34 19.8L74.42 23.88L81.37 16.93L77.29 12.85ZM15.95 23.88C22.3 30.23 27.27 35.21 31.66 38.56C36.12 41.96 40.32 43.96 45.19 43.96V38.19C42.09 38.19 39.11 36.98 35.16 33.97C31.15 30.91 26.5 26.27 20.03 19.8L15.95 23.88ZM70.34 19.8C63.87 26.27 59.22 30.91 55.21 33.97C51.27 36.98 48.28 38.19 45.18 38.19V43.96C50.05 43.96 54.25 41.96 58.71 38.56C63.1 35.21 68.07 30.24 74.42 23.88L70.34 19.8ZM20.03 19.8L12.61 12.38L8.53 16.46L15.95 23.88L20.03 19.8ZM77.76 12.38L70.34 19.8L74.42 23.88L81.84 16.46L77.76 12.38ZM41.34 5.77H49.03V0H41.34V5.77ZM49.03 69.23H41.34V75H49.03V69.23ZM80.76 37.5C80.76 44.78 80.76 50 80.32 54.05C79.89 58.04 79.06 60.54 77.64 62.5L82.31 65.89C84.56 62.79 85.57 59.16 86.06 54.67C86.54 50.24 86.54 44.65 86.54 37.5H80.76ZM49.03 75C56.18 75 61.77 75 66.2 74.52C70.68 74.03 74.32 73.03 77.42 70.77L74.03 66.1C72.08 67.52 69.58 68.35 65.58 68.78C61.53 69.22 56.31 69.22 49.03 69.22V75ZM77.64 62.49C76.63 63.88 75.41 65.1 74.02 66.11L77.41 70.78C79.29 69.42 80.94 67.77 82.3 65.89L77.64 62.49ZM49.03 5.77C56.31 5.77 61.53 5.77 65.58 6.21C69.57 6.64 72.07 7.47 74.03 8.89L77.42 4.22C74.32 1.97 70.69 0.96 66.2 0.47C61.77 0 56.18 0 49.03 0V5.77ZM74.02 8.89C75.41 9.9 76.63 11.12 77.64 12.51L82.31 9.12C80.95 7.24 79.3 5.59 77.42 4.23L74.02 8.89ZM41.34 0C34.19 0 28.6 0 24.17 0.48C19.69 0.97 16.05 1.97 12.95 4.23L16.34 8.9C18.29 7.48 20.79 6.65 24.79 6.22C28.84 5.78 34.06 5.78 41.34 5.78V0ZM12.95 4.22C11.07 5.58 9.42 7.24 8.06 9.11L12.73 12.5C13.74 11.11 14.96 9.89 16.35 8.88L12.95 4.22ZM2.88 67.31H25.96V61.54H2.88V67.31ZM2.88 55.77H14.42V50H2.88V55.77ZM9.60999 37.5C9.60999 31.21 9.60999 26.44 9.89999 22.62C10.19 18.81 10.75 16.22 11.71 14.21L6.51001 11.71C5.09001 14.67 4.45001 18.09 4.14001 22.19C3.83001 26.28 3.82999 31.3 3.82999 37.5H9.60999ZM11.71 14.22C12.01 13.61 12.34 13.04 12.73 12.51L8.06 9.12C7.47 9.94 6.95001 10.8 6.51001 11.72L11.71 14.22ZM12.61 12.38L11.15 10.92L7.07001 15L8.53 16.46L12.61 12.38ZM86.53 37.5C86.53 31.29 86.53 26.27 86.22 22.19C85.91 18.1 85.28 14.67 83.85 11.71L78.65 14.21C79.61 16.21 80.17 18.8 80.46 22.62C80.75 26.44 80.75 31.21 80.75 37.5H86.53ZM83.86 11.71C83.42 10.79 82.91 9.93 82.31 9.11L77.64 12.5C78.03 13.03 78.36 13.6 78.66 14.21L83.86 11.71ZM81.84 16.46L83.3 15L79.22 10.92L77.76 12.38L81.84 16.46Z" fill="#123461"/>
</svg>
