<svg width="69" height="75" viewBox="0 0 69 75" fill="none" xmlns="http://www.w3.org/2000/svg">
<path d="M20.06 55.81C18.62 55.81 17.44 56.98 17.44 58.43C17.44 59.87 18.61 61.05 20.06 61.05V55.81ZM47.97 61.05C49.41 61.05 50.59 59.88 50.59 58.43C50.59 56.99 49.42 55.81 47.97 55.81V61.05ZM27.03 41.86C25.59 41.86 24.41 43.03 24.41 44.48C24.41 45.92 25.58 47.1 27.03 47.1V41.86ZM40.99 47.09C42.43 47.09 43.61 45.92 43.61 44.47C43.61 43.03 42.44 41.85 40.99 41.85V47.09ZM20.06 27.91C18.62 27.91 17.44 29.08 17.44 30.53C17.44 31.97 18.61 33.15 20.06 33.15V27.91ZM47.97 33.14C49.41 33.14 50.59 31.97 50.59 30.52C50.59 29.08 49.42 27.9 47.97 27.9V33.14ZM9.81 69.05L11.35 66.93L9.81 69.05ZM5.95 65.19L8.07 63.65L5.95 65.19ZM62.08 65.19L59.96 63.65L62.08 65.19ZM58.22 69.05L56.68 66.93L58.22 69.05ZM58.22 5.95L59.76 3.83L58.22 5.95ZM62.08 9.81L59.96 11.35L62.08 9.81ZM9.81 5.95L11.35 8.07L9.81 5.95ZM5.95 9.81L8.07 11.35L5.95 9.81ZM38.01 18.65L38.42 21.23L38.01 18.65ZM32.55 18.65L32.14 21.23L32.55 18.65ZM20.06 61.05H47.97V55.82H20.06V61.05ZM27.03 47.09H40.98V41.86H27.03V47.09ZM20.06 33.14H47.97V27.91H20.06V33.14ZM62.79 34.01V40.99H68.02V34.01H62.79ZM5.23 40.99V34.01H0V40.99H5.23ZM34.01 69.77C27.41 69.77 22.67 69.77 19 69.37C15.38 68.98 13.11 68.23 11.34 66.94L8.26 71.17C11.07 73.21 14.37 74.13 18.43 74.57C22.46 75 27.53 75 34.01 75V69.77ZM0 40.99C0 47.47 0 52.54 0.43 56.56C0.87 60.63 1.79 63.92 3.83 66.73L8.06 63.65C6.78 61.88 6.03 59.62 5.63 56C5.23 52.33 5.23 47.59 5.23 40.99H0ZM11.34 66.94C10.08 66.03 8.97 64.92 8.06 63.66L3.83 66.74C5.07 68.44 6.56 69.94 8.27 71.18L11.34 66.94ZM62.79 40.99C62.79 47.59 62.79 52.33 62.39 56C62 59.62 61.25 61.89 59.96 63.66L64.19 66.74C66.23 63.93 67.15 60.63 67.59 56.57C68.02 52.55 68.02 47.48 68.02 41H62.79V40.99ZM34.01 75C40.49 75 45.56 75 49.58 74.57C53.65 74.13 56.94 73.21 59.75 71.17L56.67 66.94C54.9 68.23 52.63 68.98 49.01 69.37C45.34 69.77 40.6 69.77 34 69.77V75H34.01ZM59.96 63.66C59.05 64.92 57.94 66.03 56.68 66.94L59.76 71.17C61.46 69.93 62.96 68.44 64.2 66.73L59.96 63.66ZM68.02 34.01C68.02 27.53 68.02 22.46 67.59 18.44C67.15 14.37 66.23 11.08 64.19 8.27L59.96 11.35C61.25 13.12 62 15.39 62.39 19.01C62.79 22.68 62.79 27.42 62.79 34.02H68.02V34.01ZM56.68 8.06C57.94 8.97 59.05 10.08 59.96 11.34L64.19 8.26C62.95 6.56 61.46 5.06 59.75 3.82L56.68 8.06ZM5.23 34.01C5.23 27.41 5.23 22.67 5.63 19C6.02 15.38 6.77 13.11 8.06 11.34L3.83 8.27C1.79 11.08 0.87 14.38 0.43 18.44C0 22.46 0 27.53 0 34.01H5.23ZM8.27 3.83C6.57 5.07 5.07 6.56 3.83 8.27L8.06 11.35C8.97 10.09 10.08 8.98 11.34 8.07L8.27 3.83ZM37.6 16.06C36.06 16.3 34.5 16.3 32.96 16.06L32.14 21.23C34.22 21.56 36.34 21.56 38.42 21.23L37.6 16.06ZM54.63 3.04C50.3 7.36 47.15 10.47 44.43 12.61C41.75 14.72 39.69 15.73 37.6 16.06L38.42 21.23C41.73 20.71 44.61 19.13 47.66 16.72C50.68 14.34 54.06 11 58.32 6.74L54.63 3.04ZM34.01 5.23C39.81 5.23 44.18 5.23 47.67 5.51C51.15 5.78 53.49 6.31 55.3 7.23L57.66 2.56C54.96 1.2 51.83 0.59 48.08 0.3C44.34 0 39.73 0 34.01 0V5.23ZM55.3 7.22C55.79 7.47 56.25 7.74 56.68 8.06L59.76 3.83C59.1 3.35 58.4 2.92 57.66 2.55L55.3 7.22ZM11.48 5.99C15.98 10.49 19.52 14.02 22.63 16.51C25.78 19.03 28.74 20.69 32.14 21.23L32.96 16.06C30.82 15.72 28.7 14.66 25.9 12.42C23.06 10.15 19.76 6.86 15.18 2.28L11.48 5.99ZM34.01 0C29 0 24.85 0 21.4 0.19C17.95 0.39 15.02 0.78 12.48 1.66L14.19 6.61C16.06 5.97 18.43 5.6 21.7 5.42C24.97 5.23 28.95 5.23 34.02 5.23V0H34.01ZM12.48 1.66C10.94 2.19 9.55 2.9 8.27 3.83L11.35 8.06C12.18 7.46 13.1 6.99 14.19 6.61L12.48 1.66Z" fill="#123461"/>
</svg>
